<svg xmlns="http://www.w3.org/2000/svg" viewBox="0 0 630 430" class="svg-logo" width="315" height="215" style="height: auto;"><rect rx="10" ry="10" width="100%" height="100%" fill="rgba(242, 56, 58, 1)"></rect><g data-element="wrapper" transform="translate(-372.21627883911583 -210.67104454040754) scale(1.5500000000000103)"><g data-element="container" transform="translate(306.3909824916295 136.6541348866054) scale(0.2857142857142857)"><g><path id="fill_x5F_1" fill="transparent" d="M581.196,495.642V104.357L300,8.142L18.804,104.357v391.414L300,591.858L581.196,495.642z"></path>
<path id="frame_x5F_1" d="M588.743,501.039V98.834L300,0L11.257,98.834v402.332L300,600L588.743,501.039z M300,16.719
	l272.871,93.367v379.825L300,583.154L27.129,489.787V110.086L300,16.719z" fill="rgba(255, 255, 255, 1)"></path></g></g><g><g data-element="icon" transform="scale(0.16) translate(2150.660131175787 1089.8035516727948)"><path id="color_x5F_1_31_" d="M36.202,595l218.113-125.953l85.377,49.303l241.468-159.448L363.02,232.979v-98.564L104.237,5v251.879    l-85.396,49.304L36.202,595z M545.912,359.96L339.038,496.565L148.934,386.788l84.868-56.011l1.895,0.947l0,0l127.322,63.66v-141    L545.912,359.96z M122.775,34.999l221.707,110.873v89.652v129.864l-90.946-45.473l-8.642-144.245l-122.119,70.505V34.999z     M115.687,271.695l0.002,0.001l112.49-64.964l6.067,101.523l-120.561,79.583l122.089,70.507l-182.868,105.6L38.034,316.511    L115.687,271.695z" fill="#ffffff"></path></g><text transform="translate(484.60327911376953 243)" fill="rgba(241, 238, 242, 1)" font-family="JP Yusei Magic" font-size="24" data-element="company-name" dx="0 0 0 0 0 0 0 0">reelView</text></g></g></svg>